<svg xmlns="http://www.w3.org/2000/svg" width="162" height="50" viewBox="0 0 162 50">
    <g fill="#FFF" fill-rule="nonzero">
        <path d="M92.088 23.832v5.958c-.228-.984-1.974-2.424-4.578-2.424-3.516 0-7.794 2.814-7.794 8.484 0 5.802 4.278 8.52 7.794 8.52 2.604 0 4.362-1.722 4.59-2.676v2.46h4.086V21.096a10.387 10.387 0 0 1-4.098 2.736zm-3.954 17.022c-2.13 0-4.338-1.782-4.338-5.004 0-3.186 2.208-4.968 4.338-4.968 2.07 0 4.146 1.332 4.146 4.968 0 3.576-2.07 5.004-4.146 5.004zM42.852 9.096l-3.606 1.308c-.768-1.116-2.04-1.626-3.318-1.626-2.106 0-4.272 1.788-4.272 5.01 0 3.192 2.172 4.974 4.272 4.974 1.278 0 2.55-.51 3.288-1.626l3.666 1.308c-1.692 2.712-4.596 3.828-6.954 3.828-3.414 0-8.358-2.682-8.358-8.484 0-5.838 4.944-8.514 8.358-8.514 2.364-.006 5.268 1.11 6.924 3.822zM60.438 13.788c0 5.808-4.944 8.484-8.388 8.484s-8.388-2.682-8.388-8.484c0-5.742 4.944-8.514 8.388-8.514 3.444-.006 8.388 2.772 8.388 8.514zm-12.696 0c0 3.288 2.262 4.974 4.308 4.974s4.308-1.692 4.308-4.974c0-3.318-2.262-5.01-4.308-5.01s-4.308 1.692-4.308 5.01zM96.27 13.788c0 .51-.03 1.02-.096 1.5H83.928c.444 2.262 2.49 3.474 4.212 3.474 1.47 0 2.52-.444 3.252-1.242l3.348 1.752c-1.752 2.04-4.242 3-6.636 3-3.444 0-8.388-2.682-8.388-8.484 0-5.742 4.722-8.514 8.328-8.514 3.534-.006 8.226 2.772 8.226 8.514zm-12.318-1.566h8.196c-.51-2.298-2.424-3.414-4.116-3.414-1.782 0-3.6 1.116-4.08 3.414zM39.948 29.808v-2.232h4.086v16.59h-4.086v-2.454c-.192.96-1.98 2.682-4.596 2.682-3.474 0-7.782-2.712-7.782-8.514 0-5.676 4.272-8.484 7.782-8.484 2.622-.018 4.404 1.422 4.596 2.412zm-8.292 6.06c0 3.222 2.202 5.01 4.338 5.01 2.076 0 4.146-1.434 4.146-5.01 0-3.636-2.076-4.974-4.146-4.974-2.136-.006-4.338 1.782-4.338 4.974zM60.888 31.206l-3.606 1.308c-.768-1.116-2.04-1.626-3.318-1.626-2.106 0-4.272 1.788-4.272 5.01 0 3.192 2.172 4.974 4.272 4.974 1.278 0 2.55-.51 3.288-1.626l3.666 1.308c-1.692 2.712-4.596 3.828-6.954 3.828-3.414 0-8.358-2.682-8.358-8.484 0-5.838 4.944-8.514 8.358-8.514 2.364-.006 5.268 1.116 6.924 3.822zM74.052 29.808v-2.232h4.08v16.59h-4.08v-2.454c-.192.96-1.98 2.682-4.596 2.682-3.474 0-7.782-2.712-7.782-8.514 0-5.676 4.272-8.484 7.782-8.484 2.616-.018 4.404 1.422 4.596 2.412zm-8.292 6.06c0 3.222 2.202 5.01 4.338 5.01 2.076 0 4.146-1.434 4.146-5.01 0-3.636-2.076-4.974-4.146-4.974-2.136-.006-4.338 1.782-4.338 4.974zM114.318 35.898c0 .51-.03 1.02-.096 1.5h-12.246c.444 2.262 2.49 3.474 4.212 3.474 1.47 0 2.52-.444 3.252-1.242l3.348 1.752c-1.752 2.04-4.242 3-6.636 3-3.444 0-8.388-2.682-8.388-8.484 0-5.742 4.722-8.514 8.328-8.514 3.534-.006 8.226 2.772 8.226 8.514zm-12.312-1.566h8.196c-.51-2.298-2.424-3.414-4.116-3.414-1.782.006-3.6 1.122-4.08 3.414zM143.748 35.1v9.06h-4.116v-9.03c0-2.742-1.53-4.272-3.51-4.272-2.358 0-3.702 1.818-4.242 3.858v9.444h-4.116v-9.03c0-2.742-1.5-4.272-3.57-4.272-2.52 0-3.702 1.692-4.176 3.858v9.444h-4.116V27.57h4.116v3.384c.162-1.146 1.692-3.54 4.974-3.54 2.49 0 4.944 1.05 6.156 3.762.54-1.47 2.394-3.762 5.934-3.762 3.378 0 6.666 2.04 6.666 7.686zM161.46 27.57l-8.946 22.05h-3.99l2.376-5.91-6.984-16.14h4.02l4.914 11.358 4.596-11.358zM78.138 0v22.044h-4.08V19.59c-.222.96-1.98 2.682-4.596 2.682-3.51 0-7.782-2.712-7.782-8.514 0-5.676 4.272-8.484 7.782-8.484 2.616 0 4.368 1.434 4.596 2.424V5.466l-.006-5.46h4.086V0zm-3.894 13.752c0-3.636-2.076-4.974-4.146-4.974-2.136 0-4.338 1.788-4.338 4.974 0 3.222 2.202 5.01 4.338 5.01 2.07 0 4.146-1.434 4.146-5.01zM5.514 44.16H0l16.548-38.7h5.514z"/>
    </g>
</svg>
